<svg width="621" height="478" viewBox="0 0 621 478" fill="none" xmlns="http://www.w3.org/2000/svg">
<rect width="221" height="97" rx="25" transform="matrix(-1 0 0 1 620.704 0)" fill="#DDE9F8"/>
<rect width="620" height="93" rx="25" transform="matrix(-1 0 0 1 620.704 385)" fill="#DDE9F8"/>
<path d="M0.703857 25V338.5C0.703857 352.307 11.8967 363.5 25.7039 363.5H596C609.807 363.5 621 352.307 621 338.5V143.5C621 129.693 609.807 118.5 596 118.5H497.358H403.412C389.604 118.5 378.412 107.307 378.412 93.5V84.5147V25C378.412 11.1929 367.219 0 353.412 0H25.7039C11.8967 0 0.703857 11.1929 0.703857 25Z" fill="#DDE9F8"/>
</svg>
